# File created by Blade
# Date/Time:  Tue Jan 27 19:05:02 2015
# Frame Rate: 120.000 fps
#------------------------------------------------------
:FULLY-SPECIFIED
:DEGREES
2706
root -2.227892 31.565116 -4.687941 9.802389 -33.764035 -8.002008
Spine 3.935085 13.550862 0.764623
Head 23.465677 27.265407 -3.914416
LeftShoulder -22.853633 21.110126 11.348122
LeftArm -7.830922 -55.327492 -67.579560
LeftForeArm -9.352949 -0.000000 100.921482
LeftHand -14.722282 0.000000 38.948347
LeftHandThumb1 -26.253704 0.000000 33.147579
RightShoulder -0.743585 11.382395 -5.520775
RightArm 27.996866 -67.320142 73.719070
RightForeArm -23.836210 -0.000000 19.249865
RightHand -11.801019 0.000000 16.656479
RightHandThumb1 -24.326973 -0.000000 -32.862282
LeftUpLeg -11.355698 12.908979 -6.126210
LeftLeg 20.115797 -0.000000 -0.000000
LeftFoot -33.831029 32.801019 -20.952987
LeftToeBase 10.116675 -0.000000 -0.000000
RightUpLeg -32.297146 -61.641868 9.723216
RightLeg 101.581004 -0.000000 -0.000000
RightFoot -2.854399 -11.847855 19.942548
RightToeBase 3.637127 -0.000000 -0.000000
2707
root -2.224508 31.558034 -4.669952 9.793286 -33.948175 -8.043630
Spine 3.920557 13.704539 0.792689
Head 23.453900 27.299015 -3.921357
LeftShoulder -22.921271 21.219512 11.267286
LeftArm -8.065604 -55.396364 -67.510309
LeftForeArm -9.490629 0.000000 101.119469
LeftHand -14.715943 -0.000000 38.823607
LeftHandThumb1 -26.253704 0.000000 33.147579
RightShoulder -0.737067 11.334235 -5.502237
RightArm 28.087527 -67.386930 73.603158
RightForeArm -23.920255 -0.000000 19.172880
RightHand -11.742987 -0.000000 16.750664
RightHandThumb1 -24.326973 -0.000000 -32.862282
LeftUpLeg -11.320233 12.940662 -6.119556
LeftLeg 20.191808 -0.000000 -0.000000
LeftFoot -33.924023 32.892422 -20.967479
LeftToeBase 10.120478 -0.000000 -0.000000
RightUpLeg -32.391409 -62.052361 9.826184
RightLeg 100.912915 -0.000000 -0.000000
RightFoot -3.226386 -11.705575 20.327097
RightToeBase 3.952014 -0.000000 -0.000000
2708
root -2.221175 31.551689 -4.651216 9.774259 -34.148926 -8.049753
Spine 3.882610 13.883493 0.776587
Head 23.480584 27.365438 -3.905728
LeftShoulder -22.955242 21.318718 11.209033
LeftArm -8.302291 -55.464031 -67.447972
LeftForeArm -9.549505 -0.000000 101.322173
LeftHand -14.593802 -0.000000 38.929905
LeftHandThumb1 -26.253704 0.000000 33.147579
RightShoulder -0.745712 11.391213 -5.467578
RightArm 27.877676 -67.457835 73.760553
RightForeArm -23.978507 -0.000000 19.107696
RightHand -11.723511 -0.000000 16.833443
RightHandThumb1 -24.326973 -0.000000 -32.862282
LeftUpLeg -11.281827 13.068547 -6.158680
LeftLeg 20.226958 -0.000000 -0.000000
LeftFoot -34.039034 32.904009 -21.055863
LeftToeBase 10.130256 -0.000000 -0.000000
RightUpLeg -32.478064 -62.430597 9.888528
RightLeg 100.216210 -0.000000 -0.000000
RightFoot -3.513666 -11.634322 20.603792
RightToeBase 3.650305 -0.000000 -0.000000
2709
root -2.217161 31.546112 -4.640802 9.787436 -34.309732 -8.061616
Spine 3.836291 14.024922 0.751552
Head 23.455136 27.398967 -3.892185
LeftShoulder -23.011738 21.390722 11.157582
LeftArm -8.495473 -55.522001 -67.413010
LeftForeArm -9.597955 -0.000000 101.516522
LeftHand -14.612868 -0.000000 38.810266
LeftHandThumb1 -26.253704 0.000000 33.147579
RightShoulder -0.737470 11.370848 -5.442396
RightArm 27.921915 -67.500725 73.702321
RightForeArm -24.103344 0.000000 19.047567
RightHand -11.958955 -0.000000 16.535393
RightHandThumb1 -24.326973 -0.000000 -32.862282
LeftUpLeg -11.294772 13.185551 -6.194047
LeftLeg 20.271829 -0.000000 -0.000000
LeftFoot -34.116630 32.929658 -21.105091
LeftToeBase 10.102056 -0.000000 -0.000000
RightUpLeg -32.653025 -62.721407 10.036511
RightLeg 99.484141 -0.000000 -0.000000
RightFoot -4.554168 -11.348903 22.475076
RightToeBase 5.847715 -0.000000 -0.000000
2710
root -2.210293 31.537298 -4.628828 9.772445 -34.462125 -8.030109
Spine 3.797467 14.164705 0.686377
Head 23.406211 27.414439 -3.862087
LeftShoulder -23.036062 21.419921 11.151463
LeftArm -8.777756 -55.562412 -67.318808
LeftForeArm -9.725934 -0.000000 101.728852
LeftHand -14.475869 -0.000000 38.920031
LeftHandThumb1 -26.253704 0.000000 33.147579
RightShoulder -0.735604 11.297401 -5.447432
RightArm 28.071874 -67.495812 73.582170
RightForeArm -24.168774 -0.000000 18.965138
RightHand -11.935528 -0.000000 16.508800
RightHandThumb1 -24.326973 -0.000000 -32.862282
LeftUpLeg -11.298392 13.224257 -6.267410
LeftLeg 20.303282 -0.000000 -0.000000
LeftFoot -34.223723 33.021383 -21.160439
LeftToeBase 10.144924 -0.000000 -0.000000
RightUpLeg -32.837625 -63.012652 10.145196
RightLeg 98.767706 -0.000000 -0.000000
RightFoot -5.023869 -11.200957 23.291426
RightToeBase 6.228253 -0.000000 -0.000000
2711
root -2.209529 31.531038 -4.618594 9.783658 -34.622192 -8.063267
Spine 3.763416 14.304222 0.670707
Head 23.370085 27.452590 -3.836428
LeftShoulder -23.082081 21.461343 11.125127
LeftArm -8.995291 -55.600755 -67.255076
LeftForeArm -9.765799 -0.000000 101.913625
LeftHand -14.411247 -0.000000 38.821540
LeftHandThumb1 -26.253704 0.000000 33.147579
RightShoulder -0.726371 11.309734 -5.428455
RightArm 28.062493 -67.543222 73.582696
RightForeArm -24.233336 0.000000 18.912145
RightHand -11.954178 -0.000000 16.527847
RightHandThumb1 -24.326973 -0.000000 -32.862282
LeftUpLeg -11.292157 13.302838 -6.278722
LeftLeg 20.336398 -0.000000 -0.000000
LeftFoot -34.329598 33.082920 -21.235402
LeftToeBase 10.093918 -0.000000 -0.000000
RightUpLeg -32.821680 -63.212311 10.142534
RightLeg 98.071039 -0.000000 -0.000000
RightFoot -5.526049 -10.698694 24.394176
RightToeBase 6.440769 -0.000000 -0.000000
2712
root -2.207488 31.525075 -4.613337 9.824251 -34.782431 -8.113538
Spine 3.722656 14.432936 0.662972
Head 23.309079 27.495186 -3.833088
LeftShoulder -23.112474 21.486283 11.099973
LeftArm -9.263038 -55.684235 -67.145003
LeftForeArm -9.835578 0.000000 102.106189
LeftHand -14.377853 -0.000000 38.819778
LeftHandThumb1 -26.253704 0.000000 33.147579
RightShoulder -0.714973 11.337187 -5.425527
RightArm 28.145226 -67.634461 73.505928
RightForeArm -24.249079 -0.000000 18.851016
RightHand -11.990864 -0.000000 16.515614
RightHandThumb1 -24.326973 -0.000000 -32.862282
LeftUpLeg -11.338608 13.379159 -6.289496
LeftLeg 20.404868 -0.000000 -0.000000
LeftFoot -34.506246 33.166827 -21.398322
LeftToeBase 10.149666 -0.000000 -0.000000
RightUpLeg -32.775673 -63.271217 10.116357
RightLeg 97.435914 -0.000000 -0.000000
RightFoot -5.954396 -9.988329 25.679262
RightToeBase 6.367155 -0.000000 -0.000000
2713
root -2.208898 31.517719 -4.609159 9.863326 -34.932087 -8.171993
Spine 3.681498 14.550955 0.641548
Head 23.242957 27.560873 -3.803584
LeftShoulder -23.134557 21.498713 11.115918
LeftArm -9.539533 -55.762940 -67.027494
LeftForeArm -9.892476 -0.000000 102.297473
LeftHand -14.346709 -0.000000 38.843773
LeftHandThumb1 -26.253704 0.000000 33.147579
RightShoulder -0.709561 11.349139 -5.421925
RightArm 28.287183 -67.726502 73.374883
RightForeArm -24.212207 -0.000000 18.836235
RightHand -12.090856 -0.000000 16.472813
RightHandThumb1 -24.326973 -0.000000 -32.862282
LeftUpLeg -11.383105 13.468933 -6.270901
LeftLeg 20.500257 -0.000000 -0.000000
LeftFoot -34.570601 33.219004 -21.371558
LeftToeBase 10.151685 -0.000000 -0.000000
RightUpLeg -32.576824 -63.185584 9.946273
RightLeg 96.876739 -0.000000 -0.000000
RightFoot -6.264506 -8.997880 27.234314
RightToeBase 6.318485 -0.000000 -0.000000
2714
root -2.210505 31.510551 -4.607696 9.910748 -35.070950 -8.244193
Spine 3.648747 14.652677 0.640950
Head 23.173387 27.608671 -3.784129
LeftShoulder -23.158369 21.530748 11.109447
LeftArm -9.721763 -55.867868 -66.965285
LeftForeArm -9.937595 -0.000000 102.450565
LeftHand -14.293445 -0.000000 38.781052
LeftHandThumb1 -26.253704 0.000000 33.147579
RightShoulder -0.698815 11.373605 -5.429022
RightArm 28.477716 -67.836838 73.217102
RightForeArm -24.183604 -0.000000 18.782727
RightHand -11.960701 0.000000 16.718362
RightHandThumb1 -24.326973 -0.000000 -32.862282
LeftUpLeg -11.445264 13.546200 -6.246463
LeftLeg 20.624470 -0.000000 -0.000000
LeftFoot -34.691352 33.290944 -21.414555
LeftToeBase 10.090976 -0.000000 -0.000000
RightUpLeg -32.317182 -63.061291 9.730542
RightLeg 96.429601 -0.000000 -0.000000
RightFoot -6.266434 -8.049005 27.981593
RightToeBase 2.688488 -0.000000 -0.000000
2715
root -2.214387 31.503583 -4.604287 9.925216 -35.209632 -8.304108
Spine 3.636189 14.727398 0.621706
Head 23.106681 27.667791 -3.761078
LeftShoulder -23.188457 21.564145 11.115317
LeftArm -9.921833 -55.986971 -66.884846
LeftForeArm -9.978316 -0.000000 102.591600
LeftHand -14.314328 -0.000000 38.696259
LeftHandThumb1 -26.253704 0.000000 33.147579
RightShoulder -0.663317 11.410225 -5.417885
RightArm 28.600562 -67.913710 73.106102
RightForeArm -24.343641 -0.000000 18.774077
RightHand -11.900280 -0.000000 16.892450
RightHandThumb1 -24.326973 -0.000000 -32.862282
LeftUpLeg -11.487653 13.538817 -6.217357
LeftLeg 20.785158 -0.000000 -0.000000
LeftFoot -34.857804 33.498043 -21.488569
LeftToeBase 10.172024 -0.000000 -0.000000
RightUpLeg -32.019019 -62.910407 9.471956
RightLeg 96.049299 -0.000000 -0.000000
RightFoot -6.085990 -7.175434 28.130122
RightToeBase 1.879927 -0.000000 -0.000000
2716
root -2.216393 31.496893 -4.603901 9.958327 -35.335116 -8.370356
Spine 3.622942 14.812131 0.604669
Head 23.013671 27.716317 -3.738311
LeftShoulder -23.189090 21.584304 11.137513
LeftArm -10.114518 -56.107749 -66.799513
LeftForeArm -10.035546 -0.000000 102.715233
LeftHand -14.323959 0.000000 38.683784
LeftHandThumb1 -26.253704 0.000000 33.147579
RightShoulder -0.649016 11.623375 -5.424372
RightArm 28.364536 -68.112513 73.313661
RightForeArm -24.237497 -0.000000 18.791219
RightHand -12.038115 -0.000000 16.684221
RightHandThumb1 -24.326973 -0.000000 -32.862282
LeftUpLeg -11.545213 13.597963 -6.192347
LeftLeg 20.929446 -0.000000 -0.000000
LeftFoot -35.058907 33.512999 -21.670097
LeftToeBase 10.185704 -0.000000 -0.000000
RightUpLeg -31.788222 -62.732648 9.289803
RightLeg 95.724651 -0.000000 -0.000000
RightFoot -5.981384 -6.558061 28.001384
RightToeBase 2.433863 -0.000000 -0.000000
2717
root -2.225668 31.492846 -4.606164 10.006603 -35.457669 -8.494526
Spine 3.626397 14.875900 0.621559
Head 22.927372 27.793204 -3.702793
LeftShoulder -23.193134 21.572404 11.151312
LeftArm -10.366580 -56.234445 -66.610547
LeftForeArm -10.105844 0.000000 102.827919
LeftHand -14.308040 -0.000000 38.759608
LeftHandThumb1 -26.253704 0.000000 33.147579
RightShoulder -0.639531 11.668068 -5.402506
RightArm 28.612456 -68.258907 73.063380
RightForeArm -24.291991 -0.000000 18.833634
RightHand -12.296451 0.000000 16.468301
RightHandThumb1 -24.326973 -0.000000 -32.862282
LeftUpLeg -11.617501 13.694288 -6.092289
LeftLeg 21.155629 -0.000000 -0.000000
LeftFoot -35.134633 33.539033 -21.619437
LeftToeBase 10.167878 -0.000000 -0.000000
RightUpLeg -31.539890 -62.542309 9.179353
RightLeg 95.413561 -0.000000 -0.000000
RightFoot -5.806623 -6.330736 27.548749
RightToeBase 3.078995 -0.000000 -0.000000
2718
root -2.223615 31.489063 -4.603415 9.990808 -35.598542 -8.475469
Spine 3.615615 14.936876 0.524007
Head 22.843598 27.873384 -3.695247
LeftShoulder -23.204734 21.595094 11.132994
LeftArm -10.509631 -56.363765 -66.493437
LeftForeArm -10.170164 -0.000000 102.925901
LeftHand -14.354546 -0.000000 38.724520
LeftHandThumb1 -26.253704 0.000000 33.147579
RightShoulder -0.631246 11.697289 -5.371141
RightArm 28.844104 -68.315226 72.819449
RightForeArm -24.148014 0.000000 18.872198
RightHand -12.102616 -0.000000 16.675967
RightHandThumb1 -24.326973 -0.000000 -32.862282
LeftUpLeg -11.597115 13.592678 -6.115216
LeftLeg 21.157626 -0.000000 -0.000000
LeftFoot -35.211580 33.647530 -21.753675
LeftToeBase 10.088695 -0.000000 -0.000000
RightUpLeg -31.376130 -62.321851 8.981073
RightLeg 95.197235 -0.000000 -0.000000
RightFoot -5.694080 -6.286816 27.552818
RightToeBase 6.911221 -0.000000 -0.000000
